SplineFontDB: 3.0
FontName: Raw
FullName: Raw
FamilyName: Raw
Weight: Book
Copyright: Copyright (C) Pootle contributors
Version: 1.0
ItalicAngle: 0
UnderlinePosition: -442
UnderlineWidth: 150
Ascent: 1638
Descent: 410
InvalidEm: 0
sfntRevision: 0x00000000
LayerCount: 2
Layer: 0 1 "Back" 1
Layer: 1 1 "Fore" 0
XUID: [1021 862 1302143282 24934]
StyleMap: 0x0000
FSType: 0
OS2Version: 1
OS2_WeightWidthSlopeOnly: 0
OS2_UseTypoMetrics: 0
CreationTime: -2082844800
ModificationTime: 1464219431
PfmFamily: 17
TTFWeight: 400
TTFWidth: 5
LineGap: 67
VLineGap: 0
Panose: 2 11 6 3 5 3 2 2 2 4
OS2TypoAscent: 1491
OS2TypoAOffset: 0
OS2TypoDescent: -431
OS2TypoDOffset: 0
OS2TypoLinegap: 307
OS2WinAscent: 1854
OS2WinAOffset: 0
OS2WinDescent: 434
OS2WinDOffset: 0
HheadAscent: 1854
HheadAOffset: 0
HheadDescent: -434
HheadDOffset: 0
OS2SubXSize: 0
OS2SubYSize: 0
OS2SubXOff: 0
OS2SubYOff: 0
OS2SupXSize: 0
OS2SupYSize: 0
OS2SupXOff: 0
OS2SupYOff: 0
OS2StrikeYSize: 0
OS2StrikeYPos: 0
OS2CapHeight: 1467
OS2XHeight: 1062
OS2Vendor: 'PfEd'
OS2CodePages: 80000001.00000000
OS2UnicodeRanges: 90000001.10000000.00000020.00000000
MarkAttachClasses: 1
DEI: 91125
ShortTable: maxp 16
  1
  0
  24
  145
  8
  0
  0
  1
  0
  16
  0
  0
  0
  0
  0
  0
EndShort
LangName: 1033 "" "" "Regular" "Raw"
GaspTable: 1 65535 2 0
Encoding: UnicodeBmp
UnicodeInterp: none
NameList: AGL For New Fonts
DisplaySize: -96
AntiAlias: 1
FitToEm: 1
WinInfo: 9200 10 6
BeginPrivate: 0
EndPrivate
BeginChars: 65540 28

StartChar: uniE001
Encoding: 57345 57345 0
AltUni2: 00f00d.ffffffff.0
Width: 3378
GlyphClass: 2
Flags: W
LayerCount: 2
Fore
SplineSet
306 1490 m 2,0,-1
 3089 1490 l 2,1,2
 3151 1490 3151 1490 3195.5 1445.5 c 128,-1,3
 3240 1401 3240 1401 3240 1339 c 2,4,-1
 3240 151 l 2,5,6
 3240 88 3240 88 3195.5 44 c 128,-1,7
 3151 0 3151 0 3089 0 c 2,8,-1
 306 0 l 2,9,10
 243 0 243 0 199 44 c 128,-1,11
 155 88 155 88 155 151 c 2,12,-1
 155 1339 l 2,13,14
 155 1401 155 1401 199 1445.5 c 128,-1,15
 243 1490 243 1490 306 1490 c 2,0,-1
1010 685 m 1,16,-1
 1237 685 l 2,17,18
 1310 685 1310 685 1352 641 c 0,19,20
 1395 596 1395 596 1395 523 c 2,21,-1
 1395 440 l 2,22,23
 1395 403 1395 403 1402 356 c 0,24,25
 1409 313 1409 313 1433 293 c 1,26,-1
 1559 293 l 1,27,-1
 1559 308 l 1,28,29
 1536 329 1536 329 1527 363 c 0,30,31
 1518 396 1518 396 1518 439 c 2,32,-1
 1518 524 l 2,33,34
 1518 603 1518 603 1485 659 c 0,35,36
 1452 712 1452 712 1378 737 c 1,37,38
 1448 769 1448 769 1484 819 c 0,39,40
 1520 870 1520 870 1520 940 c 0,41,42
 1520 1065 1520 1065 1442 1131 c 256,43,44
 1364 1197 1364 1197 1215 1197 c 2,45,-1
 888 1197 l 1,46,-1
 888 293 l 1,47,-1
 1010 293 l 1,48,-1
 1010 685 l 1,16,-1
1010 782 m 1,49,-1
 1010 1100 l 1,50,-1
 1215 1100 l 2,51,52
 1309 1100 1309 1100 1353 1058 c 0,53,54
 1398 1017 1398 1017 1398 941 c 0,55,56
 1398 859 1398 859 1352 821 c 0,57,58
 1307 782 1307 782 1203 782 c 2,59,-1
 1010 782 l 1,49,-1
1853 390 m 1,60,-1
 1853 1198 l 1,61,-1
 1731 1198 l 1,62,-1
 1731 293 l 1,63,-1
 2282 293 l 1,64,-1
 2282 390 l 1,65,-1
 1853 390 l 1,60,-1
2548 293 m 1,66,-1
 2548 1198 l 1,67,-1
 2425 1198 l 1,68,-1
 2425 293 l 1,69,-1
 2548 293 l 1,66,-1
EndSplineSet
EndChar

StartChar: uniE01C
Encoding: 57372 57372 1
AltUni2: 00f00c.ffffffff.0
Width: 3378
GlyphClass: 2
Flags: W
LayerCount: 2
Fore
SplineSet
306 1490 m 2,0,-1
 3089 1490 l 2,1,2
 3151 1490 3151 1490 3195.5 1445.5 c 128,-1,3
 3240 1401 3240 1401 3240 1339 c 2,4,-1
 3240 151 l 2,5,6
 3240 88 3240 88 3195.5 44 c 128,-1,7
 3151 0 3151 0 3089 0 c 2,8,-1
 306 0 l 2,9,10
 243 0 243 0 199 44 c 128,-1,11
 155 88 155 88 155 151 c 2,12,-1
 155 1339 l 2,13,14
 155 1401 155 1401 199 1445.5 c 128,-1,15
 243 1490 243 1490 306 1490 c 2,0,-1
1010 390 m 1,16,-1
 1010 1198 l 1,17,-1
 888 1198 l 1,18,-1
 888 293 l 1,19,-1
 1438 293 l 1,20,-1
 1438 390 l 1,21,-1
 1010 390 l 1,16,-1
1697 685 m 1,22,-1
 1925 685 l 2,23,24
 1997 685 1997 685 2040 641 c 0,25,26
 2083 594 2083 594 2083 523 c 2,27,-1
 2083 440 l 2,28,29
 2083 396 2083 396 2089 356 c 0,30,31
 2096 313 2096 313 2121 293 c 1,32,-1
 2247 293 l 1,33,-1
 2247 308 l 1,34,35
 2224 327 2224 327 2215 363 c 0,36,37
 2205 394 2205 394 2205 439 c 2,38,-1
 2205 524 l 2,39,40
 2205 603 2205 603 2172 659 c 0,41,42
 2140 712 2140 712 2065 737 c 1,43,44
 2135 768 2135 768 2171 819 c 0,45,46
 2208 871 2208 871 2208 940 c 0,47,48
 2208 1065 2208 1065 2129 1131 c 0,49,50
 2051 1197 2051 1197 1902 1197 c 2,51,-1
 1575 1197 l 1,52,-1
 1575 293 l 1,53,-1
 1697 293 l 1,54,-1
 1697 685 l 1,22,-1
1697 782 m 1,55,-1
 1697 1100 l 1,56,-1
 1902 1100 l 2,57,58
 1996 1100 1996 1100 2041 1058 c 0,59,60
 2085 1017 2085 1017 2085 941 c 0,61,62
 2085 859 2085 859 2039 821 c 0,63,64
 1994 782 1994 782 1890 782 c 2,65,-1
 1697 782 l 1,55,-1
2548 293 m 1,66,-1
 2548 1198 l 1,67,-1
 2425 1198 l 1,68,-1
 2425 293 l 1,69,-1
 2548 293 l 1,66,-1
EndSplineSet
EndChar

StartChar: uniF00B
Encoding: 61451 61451 2
Width: 3378
GlyphClass: 2
Flags: W
LayerCount: 2
Fore
SplineSet
306 1490 m 2,0,-1
 3089 1490 l 2,1,2
 3151 1490 3151 1490 3195.5 1445.5 c 128,-1,3
 3240 1401 3240 1401 3240 1339 c 2,4,-1
 3240 151 l 2,5,6
 3240 88 3240 88 3195.5 44 c 128,-1,7
 3151 0 3151 0 3089 0 c 2,8,-1
 306 0 l 2,9,10
 243 0 243 0 199 44 c 128,-1,11
 155 88 155 88 155 151 c 2,12,-1
 155 1339 l 2,13,14
 155 1401 155 1401 199 1445.5 c 128,-1,15
 243 1490 243 1490 306 1490 c 2,0,-1
1101 607 m 1,16,-1
 963 1198 l 1,17,-1
 841 1198 l 1,18,-1
 1059 293 l 1,19,-1
 1168 293 l 1,20,-1
 1350 921 l 1,21,-1
 1365 1002 l 1,22,-1
 1369 1002 l 1,23,-1
 1385 921 l 1,24,-1
 1563 293 l 1,25,-1
 1673 293 l 1,26,-1
 1891 1198 l 1,27,-1
 1768 1198 l 1,28,-1
 1634 607 l 1,29,-1
 1616 490 l 1,30,-1
 1612 490 l 1,31,-1
 1587 607 l 1,32,-1
 1420 1198 l 1,33,-1
 1312 1198 l 1,34,-1
 1146 607 l 1,35,-1
 1121 493 l 1,36,-1
 1118 493 l 1,37,-1
 1101 607 l 1,16,-1
2408 1198 m 1,38,-1
 2408 545 l 2,39,40
 2408 467 2408 467 2365 423 c 0,41,42
 2322 377 2322 377 2255 377 c 0,43,44
 2176 377 2176 377 2134 419 c 0,45,46
 2092 459 2092 459 2092 544 c 1,47,-1
 1974 544 l 1,48,-1
 1973 540 l 1,49,50
 1970 414 1970 414 2047 347 c 0,51,52
 2123 281 2123 281 2255 281 c 0,53,54
 2378 281 2378 281 2454 352 c 0,55,56
 2531 422 2531 422 2531 544 c 2,57,-1
 2531 1198 l 1,58,-1
 2408 1198 l 1,38,-1
EndSplineSet
EndChar

StartChar: uniF00E
Encoding: 61454 61454 3
Width: 3378
GlyphClass: 2
Flags: W
LayerCount: 2
Fore
SplineSet
306 1490 m 2,0,-1
 3089 1490 l 2,1,2
 3151 1490 3151 1490 3195.5 1445.5 c 128,-1,3
 3240 1401 3240 1401 3240 1339 c 2,4,-1
 3240 151 l 2,5,6
 3240 88 3240 88 3195.5 44 c 128,-1,7
 3151 0 3151 0 3089 0 c 2,8,-1
 306 0 l 2,9,10
 243 0 243 0 199 44 c 128,-1,11
 155 88 155 88 155 151 c 2,12,-1
 155 1339 l 2,13,14
 155 1401 155 1401 199 1445.5 c 128,-1,15
 243 1490 243 1490 306 1490 c 2,0,-1
1420 693 m 1,16,-1
 1420 790 l 1,17,-1
 1008 790 l 1,18,-1
 1008 1101 l 1,19,-1
 1484 1101 l 1,20,-1
 1484 1198 l 1,21,-1
 885 1198 l 1,22,-1
 885 293 l 1,23,-1
 1008 293 l 1,24,-1
 1008 693 l 1,25,-1
 1420 693 l 1,16,-1
2120 522 m 0,26,27
 2120 455 2120 455 2066 416 c 256,28,29
 2012 377 2012 377 1919 377 c 0,30,31
 1823 377 1823 377 1760 423 c 0,32,33
 1696 468 1696 468 1696 555 c 1,34,-1
 1580 555 l 1,35,-1
 1578 551 l 1,36,37
 1575 428 1575 428 1679 355 c 0,38,39
 1782 281 1782 281 1919 281 c 0,40,41
 2063 281 2063 281 2153 347 c 0,42,43
 2242 413 2242 413 2242 523 c 0,44,45
 2242 624 2242 624 2168 694 c 0,46,47
 2092 763 2092 763 1950 798 c 0,48,49
 1832 827 1832 827 1778 867 c 0,50,51
 1726 907 1726 907 1726 965 c 0,52,53
 1726 1032 1726 1032 1774 1073 c 0,54,55
 1824 1114 1824 1114 1915 1114 c 0,56,57
 2013 1114 2013 1114 2065 1065 c 0,58,59
 2118 1015 2118 1015 2118 937 c 1,60,-1
 2235 937 l 1,61,-1
 2236 940 l 1,62,63
 2239 1048 2239 1048 2151 1129 c 0,64,65
 2063 1211 2063 1211 1915 1211 c 0,66,67
 1777 1211 1777 1211 1690 1140 c 256,68,69
 1603 1069 1603 1069 1603 963 c 0,70,71
 1603 862 1603 862 1684 796 c 0,72,73
 1761 730 1761 730 1908 695 c 0,74,75
 2027 666 2027 666 2073 625 c 0,76,77
 2120 582 2120 582 2120 522 c 0,26,27
2550 293 m 1,78,-1
 2550 1198 l 1,79,-1
 2427 1198 l 1,80,-1
 2427 293 l 1,81,-1
 2550 293 l 1,78,-1
EndSplineSet
EndChar

StartChar: uniF00F
Encoding: 61455 61455 4
Width: 3378
GlyphClass: 2
Flags: W
LayerCount: 2
Fore
SplineSet
306 1490 m 2,0,-1
 3089 1490 l 2,1,2
 3151 1490 3151 1490 3195.5 1445.5 c 128,-1,3
 3240 1401 3240 1401 3240 1339 c 2,4,-1
 3240 151 l 2,5,6
 3240 88 3240 88 3195.5 44 c 128,-1,7
 3151 0 3151 0 3089 0 c 2,8,-1
 306 0 l 2,9,10
 243 0 243 0 199 44 c 128,-1,11
 155 88 155 88 155 151 c 2,12,-1
 155 1339 l 2,13,14
 155 1401 155 1401 199 1445.5 c 128,-1,15
 243 1490 243 1490 306 1490 c 2,0,-1
948 656 m 1,16,-1
 1172 656 l 2,17,18
 1316 656 1316 656 1397 730 c 0,19,20
 1477 802 1477 802 1477 927 c 0,21,22
 1477 1049 1477 1049 1397 1124 c 0,23,24
 1316 1198 1316 1198 1172 1198 c 2,25,-1
 826 1198 l 1,26,-1
 826 293 l 1,27,-1
 948 293 l 1,28,-1
 948 656 l 1,16,-1
948 753 m 1,29,-1
 948 1101 l 1,30,-1
 1172 1101 l 2,31,32
 1264 1101 1264 1101 1309 1051 c 0,33,34
 1355 1002 1355 1002 1355 926 c 256,35,36
 1355 850 1355 850 1309 802 c 0,37,38
 1264 753 1264 753 1172 753 c 2,39,-1
 948 753 l 1,29,-1
1641 293 m 1,40,-1
 1919 293 l 2,41,42
 2097 293 2097 293 2205 402 c 0,43,44
 2312 510 2312 510 2312 684 c 2,45,-1
 2312 807 l 2,46,47
 2312 978 2312 978 2205 1089 c 0,48,49
 2097 1198 2097 1198 1919 1198 c 2,50,-1
 1641 1198 l 1,51,-1
 1641 293 l 1,40,-1
1764 1101 m 1,52,-1
 1919 1101 l 2,53,54
 2045 1101 2045 1101 2117 1019 c 0,55,56
 2190 937 2190 937 2190 809 c 2,57,-1
 2190 684 l 2,58,59
 2190 554 2190 554 2117 473 c 0,60,61
 2044 390 2044 390 1919 390 c 2,62,-1
 1764 390 l 1,63,-1
 1764 1101 l 1,52,-1
2609 293 m 1,64,-1
 2609 1198 l 1,65,-1
 2486 1198 l 1,66,-1
 2486 293 l 1,67,-1
 2609 293 l 1,64,-1
EndSplineSet
EndChar

StartChar: uni2409
Encoding: 9225 9225 6
Width: 3378
Flags: W
LayerCount: 2
Fore
SplineSet
306 1490 m 2,0,-1
 3089 1490 l 2,1,2
 3151 1490 3151 1490 3195.5 1445.5 c 128,-1,3
 3240 1401 3240 1401 3240 1339 c 2,4,-1
 3240 151 l 2,5,6
 3240 88 3240 88 3195.5 44 c 128,-1,7
 3151 0 3151 0 3089 0 c 2,8,-1
 306 0 l 2,9,10
 243 0 243 0 199 44 c 128,-1,11
 155 88 155 88 155 151 c 2,12,-1
 155 1339 l 2,13,14
 155 1401 155 1401 199 1445.5 c 128,-1,15
 243 1490 243 1490 306 1490 c 2,0,-1
1281 1101 m 1,16,-1
 1281 1198 l 1,17,-1
 578 1198 l 1,18,-1
 578 1101 l 1,19,-1
 868 1101 l 1,20,-1
 868 293 l 1,21,-1
 990 293 l 1,22,-1
 990 1101 l 1,23,-1
 1281 1101 l 1,16,-1
1837 526 m 1,24,-1
 1922 293 l 1,25,-1
 2047 293 l 1,26,-1
 1703 1198 l 1,27,-1
 1597 1198 l 1,28,-1
 1248 293 l 1,29,-1
 1372 293 l 1,30,-1
 1458 526 l 1,31,-1
 1837 526 l 1,24,-1
1496 629 m 1,32,-1
 1648 1041 l 1,33,-1
 1652 1041 l 1,34,-1
 1801 629 l 1,35,-1
 1496 629 l 1,32,-1
2171 293 m 1,36,-1
 2506 293 l 2,37,38
 2643 293 2643 293 2724 359 c 256,39,40
 2805 425 2805 425 2805 549 c 0,41,42
 2805 631 2805 631 2758 695 c 0,43,44
 2710 756 2710 756 2629 775 c 1,45,46
 2690 796 2690 796 2730 846 c 0,47,48
 2768 891 2768 891 2768 954 c 0,49,50
 2768 1076 2768 1076 2688 1137 c 0,51,52
 2609 1198 2609 1198 2466 1198 c 2,53,-1
 2171 1198 l 1,54,-1
 2171 293 l 1,36,-1
2294 717 m 1,55,-1
 2524 717 l 2,56,57
 2604 717 2604 717 2643 672 c 256,58,59
 2682 627 2682 627 2682 548 c 0,60,61
 2682 473 2682 473 2636 431 c 0,62,63
 2587 390 2587 390 2506 390 c 2,64,-1
 2294 390 l 1,65,-1
 2294 717 l 1,55,-1
2294 814 m 1,66,-1
 2294 1101 l 1,67,-1
 2466 1101 l 2,68,69
 2553 1101 2553 1101 2600 1065 c 0,70,71
 2646 1029 2646 1029 2646 956 c 0,72,73
 2646 889 2646 889 2603 852 c 0,74,75
 2560 814 2560 814 2492 814 c 2,76,-1
 2294 814 l 1,66,-1
EndSplineSet
EndChar

StartChar: uni240A
Encoding: 9226 9226 7
Width: 3378
Flags: W
LayerCount: 2
Fore
SplineSet
306 1490 m 2,0,-1
 3089 1490 l 2,1,2
 3151 1490 3151 1490 3195.5 1445.5 c 128,-1,3
 3240 1401 3240 1401 3240 1339 c 2,4,-1
 3240 151 l 2,5,6
 3240 88 3240 88 3195.5 44 c 128,-1,7
 3151 0 3151 0 3089 0 c 2,8,-1
 306 0 l 2,9,10
 243 0 243 0 199 44 c 128,-1,11
 155 88 155 88 155 151 c 2,12,-1
 155 1339 l 2,13,14
 155 1401 155 1401 199 1445.5 c 128,-1,15
 243 1490 243 1490 306 1490 c 2,0,-1
1235 390 m 1,16,-1
 1235 1198 l 1,17,-1
 1112 1198 l 1,18,-1
 1112 293 l 1,19,-1
 1663 293 l 1,20,-1
 1663 390 l 1,21,-1
 1235 390 l 1,16,-1
2335 693 m 1,22,-1
 2335 790 l 1,23,-1
 1922 790 l 1,24,-1
 1922 1101 l 1,25,-1
 2398 1101 l 1,26,-1
 2398 1198 l 1,27,-1
 1799 1198 l 1,28,-1
 1799 293 l 1,29,-1
 1922 293 l 1,30,-1
 1922 693 l 1,31,-1
 2335 693 l 1,22,-1
EndSplineSet
EndChar

StartChar: uniF000
Encoding: 61440 61440 8
Width: 2048
Flags: W
LayerCount: 2
Fore
SplineSet
306 1490 m 2,0,-1
 3089 1490 l 2,1,2
 3151 1490 3151 1490 3195.5 1445.5 c 128,-1,3
 3240 1401 3240 1401 3240 1339 c 2,4,-1
 3240 151 l 2,5,6
 3240 88 3240 88 3195.5 44 c 128,-1,7
 3151 0 3151 0 3089 0 c 2,8,-1
 306 0 l 2,9,10
 243 0 243 0 199 44 c 128,-1,11
 155 88 155 88 155 151 c 2,12,-1
 155 1339 l 2,13,14
 155 1401 155 1401 199 1445.5 c 128,-1,15
 243 1490 243 1490 306 1490 c 2,0,-1
1008 526 m 1,16,-1
 1093 293 l 1,17,-1
 1218 293 l 1,18,-1
 873 1198 l 1,19,-1
 769 1198 l 1,20,-1
 419 293 l 1,21,-1
 543 293 l 1,22,-1
 629 526 l 1,23,-1
 1008 526 l 1,16,-1
667 629 m 1,24,-1
 819 1041 l 1,25,-1
 823 1041 l 1,26,-1
 972 629 l 1,27,-1
 667 629 l 1,24,-1
1465 390 m 1,28,-1
 1465 1198 l 1,29,-1
 1342 1198 l 1,30,-1
 1342 293 l 1,31,-1
 1893 293 l 1,32,-1
 1893 390 l 1,33,-1
 1465 390 l 1,28,-1
2186 1198 m 1,34,-1
 2029 1198 l 1,35,-1
 2029 293 l 1,36,-1
 2152 293 l 1,37,-1
 2152 651 l 1,38,-1
 2140 1017 l 1,39,-1
 2143 1018 l 1,40,-1
 2435 293 l 1,41,-1
 2517 293 l 1,42,-1
 2810 1020 l 1,43,-1
 2813 1019 l 1,44,-1
 2801 651 l 1,45,-1
 2801 293 l 1,46,-1
 2923 293 l 1,47,-1
 2923 1198 l 1,48,-1
 2767 1198 l 1,49,-1
 2478 463 l 1,50,-1
 2475 463 l 1,51,-1
 2186 1198 l 1,34,-1
EndSplineSet
EndChar

StartChar: uniF002
Encoding: 61442 61442 9
Width: 3378
Flags: W
LayerCount: 2
Fore
SplineSet
306 1490 m 2,0,-1
 3089 1490 l 2,1,2
 3151 1490 3151 1490 3195.5 1445.5 c 128,-1,3
 3240 1401 3240 1401 3240 1339 c 2,4,-1
 3240 151 l 2,5,6
 3240 88 3240 88 3195.5 44 c 128,-1,7
 3151 0 3151 0 3089 0 c 2,8,-1
 306 0 l 2,9,10
 243 0 243 0 199 44 c 128,-1,11
 155 88 155 88 155 151 c 2,12,-1
 155 1339 l 2,13,14
 155 1401 155 1401 199 1445.5 c 128,-1,15
 243 1490 243 1490 306 1490 c 2,0,-1
414 389 m 1,16,-1
 802 1123 l 1,17,-1
 802 1198 l 1,18,-1
 282 1198 l 1,19,-1
 282 1103 l 1,20,-1
 666 1103 l 1,21,-1
 280 371 l 1,22,-1
 280 293 l 1,23,-1
 814 293 l 1,24,-1
 814 389 l 1,25,-1
 414 389 l 1,16,-1
1507 553 m 1,26,-1
 1351 1198 l 1,27,-1
 1251 1198 l 1,28,-1
 1097 553 l 1,29,-1
 1093 553 l 1,30,-1
 971 1198 l 1,31,-1
 847 1198 l 1,32,-1
 1029 293 l 1,33,-1
 1145 293 l 1,34,-1
 1300 936 l 1,35,-1
 1304 936 l 1,36,-1
 1457 293 l 1,37,-1
 1573 293 l 1,38,-1
 1756 1198 l 1,39,-1
 1632 1198 l 1,40,-1
 1511 553 l 1,41,-1
 1507 553 l 1,26,-1
2434 293 m 1,42,-1
 2434 1198 l 1,43,-1
 2309 1198 l 1,44,-1
 2309 528 l 1,45,-1
 2305 527 l 1,46,-1
 1962 1198 l 1,47,-1
 1836 1198 l 1,48,-1
 1836 293 l 1,49,-1
 1962 293 l 1,50,-1
 1962 965 l 1,51,-1
 1966 966 l 1,52,-1
 2309 293 l 1,53,-1
 2434 293 l 1,42,-1
2891 1198 m 1,54,-1
 2891 553 l 2,55,56
 2891 471 2891 471 2857 424 c 0,57,58
 2824 376 2824 376 2773 376 c 0,59,60
 2714 376 2714 376 2682 419 c 0,61,62
 2648 462 2648 462 2648 547 c 1,63,-1
 2527 547 l 1,64,-1
 2525 544 l 1,65,66
 2523 413 2523 413 2590 347 c 256,67,68
 2657 281 2657 281 2773 281 c 0,69,70
 2879 281 2879 281 2948 354 c 0,71,72
 3016 426 3016 426 3016 553 c 2,73,-1
 3016 1198 l 1,74,-1
 2891 1198 l 1,54,-1
EndSplineSet
EndChar

StartChar: uniF001
Encoding: 61441 61441 10
Width: 3378
Flags: W
LayerCount: 2
Fore
SplineSet
306 1490 m 2,0,-1
 3089 1490 l 2,1,2
 3151 1490 3151 1490 3195.5 1445.5 c 128,-1,3
 3240 1401 3240 1401 3240 1339 c 2,4,-1
 3240 151 l 2,5,6
 3240 88 3240 88 3195.5 44 c 128,-1,7
 3151 0 3151 0 3089 0 c 2,8,-1
 306 0 l 2,9,10
 243 0 243 0 199 44 c 128,-1,11
 155 88 155 88 155 151 c 2,12,-1
 155 1339 l 2,13,14
 155 1401 155 1401 199 1445.5 c 128,-1,15
 243 1490 243 1490 306 1490 c 2,0,-1
580 390 m 1,16,-1
 1065 1110 l 1,17,-1
 1065 1198 l 1,18,-1
 448 1198 l 1,19,-1
 448 1101 l 1,20,-1
 925 1101 l 1,21,-1
 442 385 l 1,22,-1
 442 293 l 1,23,-1
 1085 293 l 1,24,-1
 1085 390 l 1,25,-1
 580 390 l 1,16,-1
1436 607 m 1,26,-1
 1298 1198 l 1,27,-1
 1176 1198 l 1,28,-1
 1394 293 l 1,29,-1
 1503 293 l 1,30,-1
 1685 921 l 1,31,-1
 1700 1002 l 1,32,-1
 1704 1002 l 1,33,-1
 1720 921 l 1,34,-1
 1898 293 l 1,35,-1
 2008 293 l 1,36,-1
 2226 1198 l 1,37,-1
 2104 1198 l 1,38,-1
 1969 607 l 1,39,-1
 1951 490 l 1,40,-1
 1947 490 l 1,41,-1
 1922 607 l 1,42,-1
 1755 1198 l 1,43,-1
 1647 1198 l 1,44,-1
 1481 607 l 1,45,-1
 1456 493 l 1,46,-1
 1453 493 l 1,47,-1
 1436 607 l 1,26,-1
2872 522 m 0,48,49
 2872 455 2872 455 2818 416 c 256,50,51
 2764 377 2764 377 2671 377 c 0,52,53
 2575 377 2575 377 2512 423 c 0,54,55
 2448 468 2448 468 2448 555 c 1,56,-1
 2332 555 l 1,57,-1
 2330 551 l 1,58,59
 2327 428 2327 428 2431 355 c 0,60,61
 2534 281 2534 281 2671 281 c 0,62,63
 2815 281 2815 281 2905 347 c 0,64,65
 2994 413 2994 413 2994 523 c 0,66,67
 2994 624 2994 624 2920 694 c 0,68,69
 2844 763 2844 763 2702 798 c 0,70,71
 2583 828 2583 828 2531 867 c 0,72,73
 2478 906 2478 906 2478 965 c 0,74,75
 2478 1032 2478 1032 2526 1073 c 0,76,77
 2576 1114 2576 1114 2667 1114 c 0,78,79
 2765 1114 2765 1114 2817 1065 c 0,80,81
 2870 1015 2870 1015 2870 937 c 1,82,-1
 2987 937 l 1,83,-1
 2988 940 l 1,84,85
 2991 1048 2991 1048 2903 1129 c 0,86,87
 2815 1211 2815 1211 2667 1211 c 0,88,89
 2529 1211 2529 1211 2442 1140 c 256,90,91
 2355 1069 2355 1069 2355 963 c 0,92,93
 2355 862 2355 862 2436 796 c 0,94,95
 2513 730 2513 730 2660 695 c 0,96,97
 2779 666 2779 666 2825 625 c 0,98,99
 2872 582 2872 582 2872 522 c 0,48,49
EndSplineSet
EndChar

StartChar: uniF003
Encoding: 61443 61443 11
Width: 3378
Flags: W
LayerCount: 2
Fore
SplineSet
306 1490 m 2,0,-1
 3089 1490 l 2,1,2
 3151 1490 3151 1490 3195.5 1445.5 c 128,-1,3
 3240 1401 3240 1401 3240 1339 c 2,4,-1
 3240 151 l 2,5,6
 3240 88 3240 88 3195.5 44 c 128,-1,7
 3151 0 3151 0 3089 0 c 2,8,-1
 306 0 l 2,9,10
 243 0 243 0 199 44 c 128,-1,11
 155 88 155 88 155 151 c 2,12,-1
 155 1339 l 2,13,14
 155 1401 155 1401 199 1445.5 c 128,-1,15
 243 1490 243 1490 306 1490 c 2,0,-1
625 390 m 1,16,-1
 1111 1110 l 1,17,-1
 1111 1198 l 1,18,-1
 494 1198 l 1,19,-1
 494 1101 l 1,20,-1
 971 1101 l 1,21,-1
 487 385 l 1,22,-1
 487 293 l 1,23,-1
 1131 293 l 1,24,-1
 1131 390 l 1,25,-1
 625 390 l 1,16,-1
1482 607 m 1,26,-1
 1343 1198 l 1,27,-1
 1222 1198 l 1,28,-1
 1439 293 l 1,29,-1
 1549 293 l 1,30,-1
 1730 921 l 1,31,-1
 1746 1002 l 1,32,-1
 1750 1002 l 1,33,-1
 1766 921 l 1,34,-1
 1944 293 l 1,35,-1
 2053 293 l 1,36,-1
 2271 1198 l 1,37,-1
 2149 1198 l 1,38,-1
 2014 607 l 1,39,-1
 1996 490 l 1,40,-1
 1992 490 l 1,41,-1
 1968 607 l 1,42,-1
 1800 1198 l 1,43,-1
 1692 1198 l 1,44,-1
 1526 607 l 1,45,-1
 1502 493 l 1,46,-1
 1498 493 l 1,47,-1
 1482 607 l 1,26,-1
2789 1198 m 1,48,-1
 2789 545 l 2,49,50
 2789 469 2789 469 2746 423 c 0,51,52
 2701 377 2701 377 2635 377 c 0,53,54
 2557 377 2557 377 2515 419 c 0,55,56
 2472 460 2472 460 2472 544 c 1,57,-1
 2355 544 l 1,58,-1
 2354 540 l 1,59,60
 2350 413 2350 413 2428 347 c 0,61,62
 2504 281 2504 281 2635 281 c 0,63,64
 2758 281 2758 281 2834 352 c 0,65,66
 2911 421 2911 421 2911 544 c 2,67,-1
 2911 1198 l 1,68,-1
 2789 1198 l 1,48,-1
EndSplineSet
EndChar

StartChar: uniF004
Encoding: 61444 61444 12
Width: 3378
Flags: W
LayerCount: 2
Fore
SplineSet
306 1490 m 2,0,-1
 3089 1490 l 2,1,2
 3151 1490 3151 1490 3195.5 1445.5 c 128,-1,3
 3240 1401 3240 1401 3240 1339 c 2,4,-1
 3240 151 l 2,5,6
 3240 88 3240 88 3195.5 44 c 128,-1,7
 3151 0 3151 0 3089 0 c 2,8,-1
 306 0 l 2,9,10
 243 0 243 0 199 44 c 128,-1,11
 155 88 155 88 155 151 c 2,12,-1
 155 1339 l 2,13,14
 155 1401 155 1401 199 1445.5 c 128,-1,15
 243 1490 243 1490 306 1490 c 2,0,-1
631 390 m 1,16,-1
 631 1198 l 1,17,-1
 508 1198 l 1,18,-1
 508 293 l 1,19,-1
 1059 293 l 1,20,-1
 1059 390 l 1,21,-1
 631 390 l 1,16,-1
1318 685 m 1,22,-1
 1546 685 l 2,23,24
 1618 685 1618 685 1661 641 c 0,25,26
 1704 594 1704 594 1704 523 c 2,27,-1
 1704 440 l 2,28,29
 1704 396 1704 396 1710 356 c 0,30,31
 1717 313 1717 313 1741 293 c 1,32,-1
 1867 293 l 1,33,-1
 1867 308 l 1,34,35
 1844 329 1844 329 1835 363 c 0,36,37
 1826 396 1826 396 1826 439 c 2,38,-1
 1826 524 l 2,39,40
 1826 603 1826 603 1793 659 c 0,41,42
 1761 712 1761 712 1686 737 c 1,43,44
 1756 769 1756 769 1792 819 c 0,45,46
 1828 870 1828 870 1828 940 c 0,47,48
 1828 1065 1828 1065 1750 1131 c 256,49,50
 1672 1197 1672 1197 1523 1197 c 2,51,-1
 1195 1197 l 1,52,-1
 1195 293 l 1,53,-1
 1318 293 l 1,54,-1
 1318 685 l 1,22,-1
1318 782 m 1,55,-1
 1318 1100 l 1,56,-1
 1523 1100 l 2,57,58
 1617 1100 1617 1100 1661 1058 c 0,59,60
 1706 1017 1706 1017 1706 941 c 0,61,62
 1706 859 1706 859 1660 821 c 0,63,64
 1615 782 1615 782 1511 782 c 2,65,-1
 1318 782 l 1,55,-1
2196 1198 m 1,66,-1
 2039 1198 l 1,67,-1
 2039 293 l 1,68,-1
 2161 293 l 1,69,-1
 2161 651 l 1,70,-1
 2150 1017 l 1,71,-1
 2153 1018 l 1,72,-1
 2445 293 l 1,73,-1
 2526 293 l 1,74,-1
 2820 1020 l 1,75,-1
 2823 1019 l 1,76,-1
 2810 651 l 1,77,-1
 2810 293 l 1,78,-1
 2933 293 l 1,79,-1
 2933 1198 l 1,80,-1
 2776 1198 l 1,81,-1
 2488 463 l 1,82,-1
 2484 463 l 1,83,-1
 2196 1198 l 1,66,-1
EndSplineSet
EndChar

StartChar: uniF005
Encoding: 61445 61445 13
Width: 3378
Flags: W
LayerCount: 2
Fore
SplineSet
306 1490 m 2,0,-1
 3089 1490 l 2,1,2
 3151 1490 3151 1490 3195.5 1445.5 c 128,-1,3
 3240 1401 3240 1401 3240 1339 c 2,4,-1
 3240 151 l 2,5,6
 3240 88 3240 88 3195.5 44 c 128,-1,7
 3151 0 3151 0 3089 0 c 2,8,-1
 306 0 l 2,9,10
 243 0 243 0 199 44 c 128,-1,11
 155 88 155 88 155 151 c 2,12,-1
 155 1339 l 2,13,14
 155 1401 155 1401 199 1445.5 c 128,-1,15
 243 1490 243 1490 306 1490 c 2,0,-1
631 685 m 1,16,-1
 858 685 l 2,17,18
 931 685 931 685 973 641 c 0,19,20
 1016 596 1016 596 1016 523 c 2,21,-1
 1016 440 l 2,22,23
 1016 393 1016 393 1023 356 c 0,24,25
 1028 315 1028 315 1054 293 c 1,26,-1
 1180 293 l 1,27,-1
 1180 308 l 1,28,29
 1157 329 1157 329 1148 363 c 0,30,31
 1138 399 1138 399 1138 439 c 2,32,-1
 1138 524 l 2,33,34
 1138 605 1138 605 1106 659 c 0,35,36
 1073 712 1073 712 999 737 c 1,37,38
 1068 768 1068 768 1104 819 c 0,39,40
 1141 869 1141 869 1141 940 c 0,41,42
 1141 1065 1141 1065 1063 1131 c 0,43,44
 983 1197 983 1197 836 1197 c 2,45,-1
 508 1197 l 1,46,-1
 508 293 l 1,47,-1
 631 293 l 1,48,-1
 631 685 l 1,16,-1
631 782 m 1,49,-1
 631 1100 l 1,50,-1
 836 1100 l 2,51,52
 930 1100 930 1100 974 1058 c 0,53,54
 1019 1017 1019 1017 1019 941 c 0,55,56
 1019 860 1019 860 973 821 c 0,57,58
 928 782 928 782 824 782 c 2,59,-1
 631 782 l 1,49,-1
1474 390 m 1,60,-1
 1474 1198 l 1,61,-1
 1352 1198 l 1,62,-1
 1352 293 l 1,63,-1
 1902 293 l 1,64,-1
 1902 390 l 1,65,-1
 1474 390 l 1,60,-1
2196 1198 m 1,66,-1
 2039 1198 l 1,67,-1
 2039 293 l 1,68,-1
 2161 293 l 1,69,-1
 2161 651 l 1,70,-1
 2150 1017 l 1,71,-1
 2153 1018 l 1,72,-1
 2445 293 l 1,73,-1
 2526 293 l 1,74,-1
 2820 1020 l 1,75,-1
 2823 1019 l 1,76,-1
 2810 651 l 1,77,-1
 2810 293 l 1,78,-1
 2933 293 l 1,79,-1
 2933 1198 l 1,80,-1
 2776 1198 l 1,81,-1
 2488 463 l 1,82,-1
 2484 463 l 1,83,-1
 2196 1198 l 1,66,-1
EndSplineSet
EndChar

StartChar: uniF006
Encoding: 61446 61446 14
Width: 3378
Flags: W
LayerCount: 2
Fore
SplineSet
306 1490 m 2,0,-1
 3089 1490 l 2,1,2
 3151 1490 3151 1490 3195.5 1445.5 c 128,-1,3
 3240 1401 3240 1401 3240 1339 c 2,4,-1
 3240 151 l 2,5,6
 3240 88 3240 88 3195.5 44 c 128,-1,7
 3151 0 3151 0 3089 0 c 2,8,-1
 306 0 l 2,9,10
 243 0 243 0 199 44 c 128,-1,11
 155 88 155 88 155 151 c 2,12,-1
 155 1339 l 2,13,14
 155 1401 155 1401 199 1445.5 c 128,-1,15
 243 1490 243 1490 306 1490 c 2,0,-1
818 390 m 1,16,-1
 818 1198 l 1,17,-1
 696 1198 l 1,18,-1
 696 293 l 1,19,-1
 1246 293 l 1,20,-1
 1246 390 l 1,21,-1
 818 390 l 1,16,-1
1505 685 m 1,22,-1
 1733 685 l 2,23,24
 1805 685 1805 685 1848 641 c 0,25,26
 1891 594 1891 594 1891 523 c 2,27,-1
 1891 440 l 2,28,29
 1891 396 1891 396 1897 356 c 0,30,31
 1904 313 1904 313 1929 293 c 1,32,-1
 2055 293 l 1,33,-1
 2055 308 l 1,34,35
 2033 326 2033 326 2022 363 c 0,36,37
 2013 396 2013 396 2013 439 c 2,38,-1
 2013 524 l 2,39,40
 2013 603 2013 603 1980 659 c 0,41,42
 1948 712 1948 712 1873 737 c 1,43,44
 1943 768 1943 768 1979 819 c 256,45,46
 2015 870 2015 870 2015 940 c 0,47,48
 2015 1065 2015 1065 1937 1131 c 256,49,50
 1859 1197 1859 1197 1710 1197 c 2,51,-1
 1383 1197 l 1,52,-1
 1383 293 l 1,53,-1
 1505 293 l 1,54,-1
 1505 685 l 1,22,-1
1505 782 m 1,55,-1
 1505 1100 l 1,56,-1
 1710 1100 l 2,57,58
 1804 1100 1804 1100 1849 1058 c 0,59,60
 1893 1017 1893 1017 1893 941 c 0,61,62
 1893 859 1893 859 1847 821 c 0,63,64
 1802 782 1802 782 1698 782 c 2,65,-1
 1505 782 l 1,55,-1
2763 712 m 1,66,-1
 2763 809 l 1,67,-1
 2349 809 l 1,68,-1
 2349 1101 l 1,69,-1
 2820 1101 l 1,70,-1
 2820 1198 l 1,71,-1
 2226 1198 l 1,72,-1
 2226 293 l 1,73,-1
 2827 293 l 1,74,-1
 2827 390 l 1,75,-1
 2349 390 l 1,76,-1
 2349 712 l 1,77,-1
 2763 712 l 1,66,-1
EndSplineSet
EndChar

StartChar: uniF007
Encoding: 61447 61447 15
Width: 3378
Flags: W
LayerCount: 2
Fore
SplineSet
306 1490 m 2,0,-1
 3089 1490 l 2,1,2
 3151 1490 3151 1490 3195.5 1445.5 c 128,-1,3
 3240 1401 3240 1401 3240 1339 c 2,4,-1
 3240 151 l 2,5,6
 3240 88 3240 88 3195.5 44 c 128,-1,7
 3151 0 3151 0 3089 0 c 2,8,-1
 306 0 l 2,9,10
 243 0 243 0 199 44 c 128,-1,11
 155 88 155 88 155 151 c 2,12,-1
 155 1339 l 2,13,14
 155 1401 155 1401 199 1445.5 c 128,-1,15
 243 1490 243 1490 306 1490 c 2,0,-1
818 685 m 1,16,-1
 1045 685 l 2,17,18
 1118 685 1118 685 1160 641 c 0,19,20
 1203 596 1203 596 1203 523 c 2,21,-1
 1203 440 l 2,22,23
 1203 393 1203 393 1210 356 c 0,24,25
 1217 313 1217 313 1241 293 c 1,26,-1
 1367 293 l 1,27,-1
 1367 308 l 1,28,29
 1344 329 1344 329 1335 363 c 0,30,31
 1326 396 1326 396 1326 439 c 2,32,-1
 1326 524 l 2,33,34
 1326 603 1326 603 1293 659 c 0,35,36
 1260 712 1260 712 1186 737 c 1,37,38
 1256 769 1256 769 1292 819 c 0,39,40
 1328 870 1328 870 1328 940 c 0,41,42
 1328 1065 1328 1065 1250 1131 c 256,43,44
 1172 1197 1172 1197 1023 1197 c 2,45,-1
 696 1197 l 1,46,-1
 696 293 l 1,47,-1
 818 293 l 1,48,-1
 818 685 l 1,16,-1
818 782 m 1,49,-1
 818 1100 l 1,50,-1
 1023 1100 l 2,51,52
 1117 1100 1117 1100 1161 1058 c 0,53,54
 1206 1017 1206 1017 1206 941 c 0,55,56
 1206 859 1206 859 1160 821 c 0,57,58
 1113 782 1113 782 1010 782 c 2,59,-1
 818 782 l 1,49,-1
1661 390 m 1,60,-1
 1661 1198 l 1,61,-1
 1539 1198 l 1,62,-1
 1539 293 l 1,63,-1
 2090 293 l 1,64,-1
 2090 390 l 1,65,-1
 1661 390 l 1,60,-1
2763 712 m 1,66,-1
 2763 809 l 1,67,-1
 2349 809 l 1,68,-1
 2349 1101 l 1,69,-1
 2820 1101 l 1,70,-1
 2820 1198 l 1,71,-1
 2226 1198 l 1,72,-1
 2226 293 l 1,73,-1
 2827 293 l 1,74,-1
 2827 390 l 1,75,-1
 2349 390 l 1,76,-1
 2349 712 l 1,77,-1
 2763 712 l 1,66,-1
EndSplineSet
EndChar

StartChar: uniF008
Encoding: 61448 61448 16
Width: 3378
Flags: W
LayerCount: 2
Fore
SplineSet
306 1490 m 2,0,-1
 3089 1490 l 2,1,2
 3151 1490 3151 1490 3195.5 1445.5 c 128,-1,3
 3240 1401 3240 1401 3240 1339 c 2,4,-1
 3240 151 l 2,5,6
 3240 88 3240 88 3195.5 44 c 128,-1,7
 3151 0 3151 0 3089 0 c 2,8,-1
 306 0 l 2,9,10
 243 0 243 0 199 44 c 128,-1,11
 155 88 155 88 155 151 c 2,12,-1
 155 1339 l 2,13,14
 155 1401 155 1401 199 1445.5 c 128,-1,15
 243 1490 243 1490 306 1490 c 2,0,-1
758 656 m 1,16,-1
 981 656 l 2,17,18
 1125 656 1125 656 1206 730 c 0,19,20
 1287 803 1287 803 1287 927 c 0,21,22
 1287 1049 1287 1049 1206 1124 c 0,23,24
 1125 1198 1125 1198 981 1198 c 2,25,-1
 635 1198 l 1,26,-1
 635 293 l 1,27,-1
 758 293 l 1,28,-1
 758 656 l 1,16,-1
758 753 m 1,29,-1
 758 1101 l 1,30,-1
 981 1101 l 2,31,32
 1073 1101 1073 1101 1118 1051 c 0,33,34
 1164 1002 1164 1002 1164 926 c 0,35,36
 1164 851 1164 851 1119 802 c 0,37,38
 1072 753 1072 753 981 753 c 2,39,-1
 758 753 l 1,29,-1
1451 293 m 1,40,-1
 1729 293 l 2,41,42
 1906 293 1906 293 2014 402 c 0,43,44
 2121 510 2121 510 2121 684 c 2,45,-1
 2121 807 l 2,46,47
 2121 978 2121 978 2014 1089 c 0,48,49
 1906 1198 1906 1198 1729 1198 c 2,50,-1
 1451 1198 l 1,51,-1
 1451 293 l 1,40,-1
1573 1101 m 1,52,-1
 1729 1101 l 2,53,54
 1854 1101 1854 1101 1926 1019 c 0,55,56
 1999 937 1999 937 1999 809 c 2,57,-1
 1999 684 l 2,58,59
 1999 554 1999 554 1926 473 c 0,60,61
 1853 390 1853 390 1729 390 c 2,62,-1
 1573 390 l 1,63,-1
 1573 1101 l 1,52,-1
2824 693 m 1,64,-1
 2824 790 l 1,65,-1
 2411 790 l 1,66,-1
 2411 1101 l 1,67,-1
 2888 1101 l 1,68,-1
 2888 1198 l 1,69,-1
 2289 1198 l 1,70,-1
 2289 293 l 1,71,-1
 2411 293 l 1,72,-1
 2411 693 l 1,73,-1
 2824 693 l 1,64,-1
EndSplineSet
EndChar

StartChar: uniF009
Encoding: 61449 61449 17
Width: 3378
Flags: W
LayerCount: 2
Fore
SplineSet
306 1490 m 2,0,-1
 3089 1490 l 2,1,2
 3151 1490 3151 1490 3195.5 1445.5 c 128,-1,3
 3240 1401 3240 1401 3240 1339 c 2,4,-1
 3240 151 l 2,5,6
 3240 88 3240 88 3195.5 44 c 128,-1,7
 3151 0 3151 0 3089 0 c 2,8,-1
 306 0 l 2,9,10
 243 0 243 0 199 44 c 128,-1,11
 155 88 155 88 155 151 c 2,12,-1
 155 1339 l 2,13,14
 155 1401 155 1401 199 1445.5 c 128,-1,15
 243 1490 243 1490 306 1490 c 2,0,-1
756 390 m 1,16,-1
 756 1198 l 1,17,-1
 634 1198 l 1,18,-1
 634 293 l 1,19,-1
 1184 293 l 1,20,-1
 1184 390 l 1,21,-1
 756 390 l 1,16,-1
1443 685 m 1,22,-1
 1671 685 l 2,23,24
 1743 685 1743 685 1786 641 c 0,25,26
 1829 596 1829 596 1829 523 c 2,27,-1
 1829 440 l 2,28,29
 1829 396 1829 396 1835 356 c 0,30,31
 1842 313 1842 313 1867 293 c 1,32,-1
 1993 293 l 1,33,-1
 1993 308 l 1,34,35
 1970 327 1970 327 1961 363 c 0,36,37
 1951 394 1951 394 1951 439 c 2,38,-1
 1951 524 l 2,39,40
 1951 603 1951 603 1918 659 c 0,41,42
 1886 712 1886 712 1811 737 c 1,43,44
 1881 768 1881 768 1917 819 c 0,45,46
 1954 869 1954 869 1954 940 c 0,47,48
 1954 1065 1954 1065 1875 1131 c 0,49,50
 1797 1197 1797 1197 1648 1197 c 2,51,-1
 1321 1197 l 1,52,-1
 1321 293 l 1,53,-1
 1443 293 l 1,54,-1
 1443 685 l 1,22,-1
1443 782 m 1,55,-1
 1443 1100 l 1,56,-1
 1648 1100 l 2,57,58
 1742 1100 1742 1100 1787 1058 c 0,59,60
 1831 1017 1831 1017 1831 941 c 0,61,62
 1831 859 1831 859 1785 821 c 0,63,64
 1740 782 1740 782 1636 782 c 2,65,-1
 1443 782 l 1,55,-1
2849 665 m 2,66,-1
 2849 826 l 2,67,68
 2849 991 2849 991 2747 1101 c 0,69,70
 2644 1211 2644 1211 2480 1211 c 0,71,72
 2321 1211 2321 1211 2222 1101 c 256,73,74
 2123 991 2123 991 2123 826 c 2,75,-1
 2123 665 l 2,76,77
 2123 499 2123 499 2222 390 c 0,78,79
 2320 281 2320 281 2480 281 c 0,80,81
 2643 281 2643 281 2747 390 c 0,82,83
 2849 499 2849 499 2849 665 c 2,66,-1
2727 826 m 2,84,-1
 2727 664 l 2,85,86
 2727 538 2727 538 2660 460 c 0,87,88
 2593 381 2593 381 2480 381 c 0,89,90
 2374 381 2374 381 2309 460 c 0,91,92
 2245 538 2245 538 2245 664 c 2,93,-1
 2245 826 l 2,94,95
 2245 950 2245 950 2309 1029 c 256,96,97
 2373 1108 2373 1108 2480 1108 c 0,98,99
 2592 1108 2592 1108 2660 1029 c 0,100,101
 2727 950 2727 950 2727 826 c 2,84,-1
EndSplineSet
EndChar

StartChar: uniF00A
Encoding: 61450 61450 18
Width: 3378
Flags: W
LayerCount: 2
Fore
SplineSet
306 1490 m 2,0,-1
 3089 1490 l 2,1,2
 3151 1490 3151 1490 3195.5 1445.5 c 128,-1,3
 3240 1401 3240 1401 3240 1339 c 2,4,-1
 3240 151 l 2,5,6
 3240 88 3240 88 3195.5 44 c 128,-1,7
 3151 0 3151 0 3089 0 c 2,8,-1
 306 0 l 2,9,10
 243 0 243 0 199 44 c 128,-1,11
 155 88 155 88 155 151 c 2,12,-1
 155 1339 l 2,13,14
 155 1401 155 1401 199 1445.5 c 128,-1,15
 243 1490 243 1490 306 1490 c 2,0,-1
764 685 m 1,16,-1
 991 685 l 2,17,18
 1064 685 1064 685 1106 641 c 0,19,20
 1149 596 1149 596 1149 523 c 2,21,-1
 1149 440 l 2,22,23
 1149 393 1149 393 1156 356 c 0,24,25
 1163 313 1163 313 1187 293 c 1,26,-1
 1313 293 l 1,27,-1
 1313 308 l 1,28,29
 1290 329 1290 329 1281 363 c 0,30,31
 1271 399 1271 399 1271 439 c 2,32,-1
 1271 524 l 2,33,34
 1271 605 1271 605 1239 659 c 0,35,36
 1206 712 1206 712 1132 737 c 1,37,38
 1200 768 1200 768 1238 819 c 0,39,40
 1274 870 1274 870 1274 940 c 0,41,42
 1274 1065 1274 1065 1196 1131 c 256,43,44
 1118 1197 1118 1197 969 1197 c 2,45,-1
 641 1197 l 1,46,-1
 641 293 l 1,47,-1
 764 293 l 1,48,-1
 764 685 l 1,16,-1
764 782 m 1,49,-1
 764 1100 l 1,50,-1
 969 1100 l 2,51,52
 1063 1100 1063 1100 1107 1058 c 0,53,54
 1152 1017 1152 1017 1152 941 c 0,55,56
 1152 860 1152 860 1106 821 c 0,57,58
 1059 782 1059 782 957 782 c 2,59,-1
 764 782 l 1,49,-1
1607 390 m 1,60,-1
 1607 1198 l 1,61,-1
 1485 1198 l 1,62,-1
 1485 293 l 1,63,-1
 2036 293 l 1,64,-1
 2036 390 l 1,65,-1
 1607 390 l 1,60,-1
2842 665 m 2,66,-1
 2842 826 l 2,67,68
 2842 990 2842 990 2739 1101 c 0,69,70
 2636 1211 2636 1211 2472 1211 c 0,71,72
 2313 1211 2313 1211 2214 1101 c 256,73,74
 2115 991 2115 991 2115 826 c 2,75,-1
 2115 665 l 2,76,77
 2115 499 2115 499 2214 390 c 0,78,79
 2312 281 2312 281 2472 281 c 0,80,81
 2635 281 2635 281 2739 390 c 0,82,83
 2842 500 2842 500 2842 665 c 2,66,-1
2719 826 m 2,84,-1
 2719 664 l 2,85,86
 2719 538 2719 538 2652 460 c 0,87,88
 2585 381 2585 381 2472 381 c 0,89,90
 2366 381 2366 381 2301 460 c 0,91,92
 2237 540 2237 540 2237 664 c 2,93,-1
 2237 826 l 2,94,95
 2237 948 2237 948 2301 1029 c 0,96,97
 2365 1108 2365 1108 2472 1108 c 0,98,99
 2584 1108 2584 1108 2652 1029 c 0,100,101
 2719 950 2719 950 2719 826 c 2,84,-1
EndSplineSet
EndChar

StartChar: uni2423
Encoding: 9251 9251 19
Width: 3378
Flags: W
LayerCount: 2
Fore
SplineSet
306 1490 m 2,0,-1
 3089 1490 l 2,1,2
 3151 1490 3151 1490 3195.5 1445.5 c 128,-1,3
 3240 1401 3240 1401 3240 1339 c 2,4,-1
 3240 151 l 2,5,6
 3240 88 3240 88 3195.5 44 c 128,-1,7
 3151 0 3151 0 3089 0 c 2,8,-1
 306 0 l 2,9,10
 243 0 243 0 199 44 c 128,-1,11
 155 88 155 88 155 151 c 2,12,-1
 155 1339 l 2,13,14
 155 1401 155 1401 199 1445.5 c 128,-1,15
 243 1490 243 1490 306 1490 c 2,0,-1
1014 293 m 1,16,-1
 1014 1198 l 1,17,-1
 889 1198 l 1,18,-1
 889 528 l 1,19,-1
 885 527 l 1,20,-1
 542 1198 l 1,21,-1
 416 1198 l 1,22,-1
 416 293 l 1,23,-1
 542 293 l 1,24,-1
 542 965 l 1,25,-1
 545 966 l 1,26,-1
 889 293 l 1,27,-1
 1014 293 l 1,16,-1
1153 293 m 1,28,-1
 1441 293 l 2,29,30
 1565 293 1565 293 1636 359 c 256,31,32
 1707 425 1707 425 1707 550 c 0,33,34
 1707 628 1707 628 1667 692 c 0,35,36
 1627 752 1627 752 1554 769 c 1,37,38
 1611 791 1611 791 1645 841 c 0,39,40
 1677 891 1677 891 1677 955 c 0,41,42
 1677 1077 1677 1077 1605 1137 c 0,43,44
 1535 1198 1535 1198 1406 1198 c 2,45,-1
 1153 1198 l 1,46,-1
 1153 293 l 1,28,-1
1280 716 m 1,47,-1
 1454 716 l 2,48,49
 1518 716 1518 716 1550 671 c 0,50,51
 1581 626 1581 626 1581 549 c 0,52,53
 1581 471 1581 471 1544 430 c 256,54,55
 1507 389 1507 389 1441 389 c 2,56,-1
 1280 389 l 1,57,-1
 1280 716 l 1,47,-1
1280 806 m 1,58,-1
 1280 1103 l 1,59,-1
 1406 1103 l 2,60,61
 1477 1103 1477 1103 1514 1065 c 0,62,63
 1551 1028 1551 1028 1551 953 c 0,64,65
 1551 882 1551 882 1516 844 c 0,66,67
 1479 806 1479 806 1418 806 c 2,68,-1
 1280 806 l 1,58,-1
2228 522 m 0,69,70
 2228 455 2228 455 2187 416 c 0,71,72
 2148 376 2148 376 2076 376 c 0,73,74
 1997 376 1997 376 1949 421 c 0,75,76
 1900 465 1900 465 1900 558 c 1,77,-1
 1779 558 l 1,78,-1
 1777 554 l 1,79,80
 1773 424 1773 424 1865 352 c 0,81,82
 1955 281 1955 281 2076 281 c 0,83,84
 2201 281 2201 281 2277 346 c 0,85,86
 2354 412 2354 412 2354 523 c 0,87,88
 2354 628 2354 628 2289 695 c 256,89,90
 2224 762 2224 762 2101 800 c 0,91,92
 2007 832 2007 832 1965 872 c 0,93,94
 1924 911 1924 911 1924 969 c 0,95,96
 1924 1033 1924 1033 1963 1074 c 0,97,98
 2000 1116 2000 1116 2071 1116 c 0,99,100
 2145 1116 2145 1116 2186 1066 c 0,101,102
 2226 1017 2226 1017 2226 937 c 1,103,-1
 2348 937 l 1,104,-1
 2349 941 l 1,105,106
 2350 1054 2350 1054 2274 1132 c 0,107,108
 2197 1211 2197 1211 2072 1211 c 0,109,110
 1951 1211 1951 1211 1875 1142 c 0,111,112
 1798 1072 1798 1072 1798 967 c 0,113,114
 1798 864 1798 864 1867 801 c 256,115,116
 1936 738 1936 738 2065 699 c 1,117,118
 2155 667 2155 667 2191 627 c 0,119,120
 2228 585 2228 585 2228 522 c 0,69,70
2578 651 m 1,121,-1
 2749 651 l 2,122,123
 2876 651 2876 651 2948 726 c 256,124,125
 3020 801 3020 801 3020 925 c 0,126,127
 3020 1048 3020 1048 2948 1123 c 256,128,129
 2876 1198 2876 1198 2749 1198 c 2,130,-1
 2452 1198 l 1,131,-1
 2452 293 l 1,132,-1
 2578 293 l 1,133,-1
 2578 651 l 1,121,-1
2578 746 m 1,134,-1
 2578 1103 l 1,135,-1
 2749 1103 l 2,136,137
 2822 1103 2822 1103 2858 1052 c 256,138,139
 2894 1001 2894 1001 2894 923 c 0,140,141
 2894 846 2894 846 2858 797 c 0,142,143
 2820 746 2820 746 2749 746 c 2,144,-1
 2578 746 l 1,134,-1
EndSplineSet
EndChar

StartChar: uni2400
Encoding: 9216 9216 20
Width: 3378
Flags: W
LayerCount: 2
Fore
SplineSet
306 1490 m 2,0,-1
 3089 1490 l 2,1,2
 3151 1490 3151 1490 3195.5 1445.5 c 128,-1,3
 3240 1401 3240 1401 3240 1339 c 2,4,-1
 3240 151 l 2,5,6
 3240 88 3240 88 3195.5 44 c 128,-1,7
 3151 0 3151 0 3089 0 c 2,8,-1
 306 0 l 2,9,10
 243 0 243 0 199 44 c 128,-1,11
 155 88 155 88 155 151 c 2,12,-1
 155 1339 l 2,13,14
 155 1401 155 1401 199 1445.5 c 128,-1,15
 243 1490 243 1490 306 1490 c 2,0,-1
1117 293 m 1,16,-1
 1117 1198 l 1,17,-1
 992 1198 l 1,18,-1
 992 528 l 1,19,-1
 988 527 l 1,20,-1
 645 1198 l 1,21,-1
 519 1198 l 1,22,-1
 519 293 l 1,23,-1
 645 293 l 1,24,-1
 645 965 l 1,25,-1
 649 966 l 1,26,-1
 992 293 l 1,27,-1
 1117 293 l 1,16,-1
1819 1198 m 1,28,-1
 1693 1198 l 1,29,-1
 1693 571 l 2,30,31
 1693 471 1693 471 1649 423 c 0,32,33
 1605 376 1605 376 1528 376 c 0,34,35
 1453 376 1453 376 1410 425 c 0,36,37
 1367 473 1367 473 1367 571 c 2,38,-1
 1367 1198 l 1,39,-1
 1242 1198 l 1,40,-1
 1242 571 l 2,41,42
 1242 430 1242 430 1321 356 c 0,43,44
 1399 281 1399 281 1528 281 c 256,45,46
 1657 281 1657 281 1738 356 c 256,47,48
 1819 431 1819 431 1819 571 c 2,49,-1
 1819 1198 l 1,28,-1
2067 389 m 1,50,-1
 2067 1198 l 1,51,-1
 1941 1198 l 1,52,-1
 1941 293 l 1,53,-1
 2420 293 l 1,54,-1
 2420 389 l 1,55,-1
 2067 389 l 1,50,-1
2621 389 m 1,56,-1
 2621 1198 l 1,57,-1
 2495 1198 l 1,58,-1
 2495 293 l 1,59,-1
 2974 293 l 1,60,-1
 2974 389 l 1,61,-1
 2621 389 l 1,56,-1
EndSplineSet
EndChar

StartChar: uni240D
Encoding: 9229 9229 21
Width: 3378
Flags: W
LayerCount: 2
Fore
SplineSet
306 1490 m 2,0,-1
 3089 1490 l 2,1,2
 3151 1490 3151 1490 3195.5 1445.5 c 128,-1,3
 3240 1401 3240 1401 3240 1339 c 2,4,-1
 3240 151 l 2,5,6
 3240 88 3240 88 3195.5 44 c 128,-1,7
 3151 0 3151 0 3089 0 c 2,8,-1
 306 0 l 2,9,10
 243 0 243 0 199 44 c 128,-1,11
 155 88 155 88 155 151 c 2,12,-1
 155 1339 l 2,13,14
 155 1401 155 1401 199 1445.5 c 128,-1,15
 243 1490 243 1490 306 1490 c 2,0,-1
1641 584 m 1,16,-1
 1524 584 l 1,17,18
 1524 488 1524 488 1468 432 c 0,19,20
 1411 377 1411 377 1310 377 c 0,21,22
 1207 377 1207 377 1146 460 c 0,23,24
 1086 542 1086 542 1086 666 c 2,25,-1
 1086 827 l 2,26,27
 1086 949 1086 949 1146 1032 c 0,28,29
 1207 1114 1207 1114 1310 1114 c 256,30,31
 1413 1114 1413 1114 1468 1059 c 0,32,33
 1524 1003 1524 1003 1524 908 c 1,34,-1
 1641 908 l 1,35,-1
 1642 912 l 1,36,37
 1644 1046 1644 1046 1554 1129 c 0,38,39
 1464 1211 1464 1211 1310 1211 c 0,40,41
 1155 1211 1155 1211 1060 1102 c 0,42,43
 963 991 963 991 963 826 c 2,44,-1
 963 665 l 2,45,46
 963 499 963 499 1060 389 c 0,47,48
 1156 281 1156 281 1310 281 c 0,49,50
 1462 281 1462 281 1553 367 c 0,51,52
 1645 452 1645 452 1642 581 c 1,53,-1
 1641 584 l 1,16,-1
1930 685 m 1,54,-1
 2158 685 l 2,55,56
 2230 685 2230 685 2273 641 c 0,57,58
 2316 596 2316 596 2316 523 c 2,59,-1
 2316 440 l 2,60,61
 2316 396 2316 396 2322 356 c 0,62,63
 2329 313 2329 313 2354 293 c 1,64,-1
 2480 293 l 1,65,-1
 2480 308 l 1,66,67
 2457 327 2457 327 2448 363 c 0,68,69
 2438 394 2438 394 2438 439 c 2,70,-1
 2438 524 l 2,71,72
 2438 603 2438 603 2405 659 c 0,73,74
 2373 712 2373 712 2298 737 c 1,75,76
 2368 768 2368 768 2404 819 c 0,77,78
 2441 869 2441 869 2441 940 c 0,79,80
 2441 1065 2441 1065 2362 1131 c 0,81,82
 2284 1197 2284 1197 2135 1197 c 2,83,-1
 1808 1197 l 1,84,-1
 1808 293 l 1,85,-1
 1930 293 l 1,86,-1
 1930 685 l 1,54,-1
1930 782 m 1,87,-1
 1930 1100 l 1,88,-1
 2135 1100 l 2,89,90
 2229 1100 2229 1100 2274 1058 c 0,91,92
 2318 1017 2318 1017 2318 941 c 0,93,94
 2318 859 2318 859 2272 821 c 0,95,96
 2227 782 2227 782 2123 782 c 2,97,-1
 1930 782 l 1,87,-1
EndSplineSet
EndChar

StartChar: uni241B
Encoding: 9243 9243 22
Width: 3378
Flags: W
LayerCount: 2
Fore
SplineSet
306 1490 m 2,0,-1
 3089 1490 l 2,1,2
 3151 1490 3151 1490 3195.5 1445.5 c 128,-1,3
 3240 1401 3240 1401 3240 1339 c 2,4,-1
 3240 151 l 2,5,6
 3240 88 3240 88 3195.5 44 c 128,-1,7
 3151 0 3151 0 3089 0 c 2,8,-1
 306 0 l 2,9,10
 243 0 243 0 199 44 c 128,-1,11
 155 88 155 88 155 151 c 2,12,-1
 155 1339 l 2,13,14
 155 1401 155 1401 199 1445.5 c 128,-1,15
 243 1490 243 1490 306 1490 c 2,0,-1
1192 712 m 1,16,-1
 1192 809 l 1,17,-1
 777 809 l 1,18,-1
 777 1101 l 1,19,-1
 1248 1101 l 1,20,-1
 1248 1198 l 1,21,-1
 655 1198 l 1,22,-1
 655 293 l 1,23,-1
 1255 293 l 1,24,-1
 1255 390 l 1,25,-1
 777 390 l 1,26,-1
 777 712 l 1,27,-1
 1192 712 l 1,16,-1
1892 522 m 0,28,29
 1892 454 1892 454 1837 416 c 0,30,31
 1783 377 1783 377 1691 377 c 0,32,33
 1595 377 1595 377 1532 423 c 0,34,35
 1468 468 1468 468 1468 555 c 1,36,-1
 1351 555 l 1,37,-1
 1350 551 l 1,38,39
 1347 428 1347 428 1451 355 c 0,40,41
 1554 281 1554 281 1691 281 c 0,42,43
 1835 281 1835 281 1925 347 c 0,44,45
 2014 413 2014 413 2014 523 c 0,46,47
 2014 625 2014 625 1939 694 c 0,48,49
 1865 763 1865 763 1722 798 c 0,50,51
 1604 827 1604 827 1550 867 c 0,52,53
 1497 907 1497 907 1497 965 c 0,54,55
 1497 1031 1497 1031 1546 1073 c 0,56,57
 1596 1114 1596 1114 1687 1114 c 0,58,59
 1785 1114 1785 1114 1837 1065 c 0,60,61
 1890 1015 1890 1015 1890 937 c 1,62,-1
 2007 937 l 1,63,-1
 2008 940 l 1,64,65
 2011 1048 2011 1048 1923 1129 c 0,66,67
 1835 1211 1835 1211 1687 1211 c 0,68,69
 1548 1211 1548 1211 1462 1140 c 0,70,71
 1375 1069 1375 1069 1375 963 c 0,72,73
 1375 862 1375 862 1456 796 c 0,74,75
 1533 730 1533 730 1680 695 c 0,76,77
 1799 666 1799 666 1845 625 c 0,78,79
 1892 582 1892 582 1892 522 c 0,28,29
2832 584 m 1,80,-1
 2714 584 l 1,81,82
 2714 487 2714 487 2659 432 c 0,83,84
 2600 377 2600 377 2501 377 c 0,85,86
 2398 377 2398 377 2337 460 c 256,87,88
 2276 543 2276 543 2276 666 c 2,89,-1
 2276 827 l 2,90,91
 2276 948 2276 948 2337 1032 c 0,92,93
 2398 1114 2398 1114 2501 1114 c 0,94,95
 2602 1114 2602 1114 2659 1059 c 0,96,97
 2714 1004 2714 1004 2714 908 c 1,98,-1
 2832 908 l 1,99,-1
 2833 912 l 1,100,101
 2835 1045 2835 1045 2745 1129 c 0,102,103
 2655 1211 2655 1211 2501 1211 c 256,104,105
 2347 1211 2347 1211 2250 1102 c 0,106,107
 2154 992 2154 992 2154 826 c 2,108,-1
 2154 665 l 2,109,110
 2154 498 2154 498 2250 389 c 0,111,112
 2347 281 2347 281 2501 281 c 0,113,114
 2652 281 2652 281 2744 367 c 0,115,116
 2836 452 2836 452 2833 581 c 1,117,-1
 2832 584 l 1,80,-1
EndSplineSet
EndChar

StartChar: uni2420
Encoding: 9248 9248 23
Width: 1126
Flags: W
LayerCount: 2
Fore
SplineSet
564 606 m 0,0,1
 492 606 492 606 492 677 c 0,2,3
 492 749 492 749 564 749 c 0,4,5
 635 749 635 749 635 677 c 0,6,7
 635 606 635 606 564 606 c 0,0,1
EndSplineSet
EndChar

StartChar: uni2407
Encoding: 9223 9223 24
Width: 3378
Flags: W
LayerCount: 2
Fore
SplineSet
306 1490 m 2,0,-1
 3089 1490 l 2,1,2
 3151 1490 3151 1490 3195.5 1445.5 c 128,-1,3
 3240 1401 3240 1401 3240 1339 c 2,4,-1
 3240 151 l 2,5,6
 3240 88 3240 88 3195.5 44 c 128,-1,7
 3151 0 3151 0 3089 0 c 2,8,-1
 306 0 l 2,9,10
 243 0 243 0 199 44 c 128,-1,11
 155 88 155 88 155 151 c 2,12,-1
 155 1339 l 2,13,14
 155 1401 155 1401 199 1445.5 c 128,-1,15
 243 1490 243 1490 306 1490 c 2,0,-1
646 293 m 1,16,-1
 981 293 l 2,17,18
 1118 293 1118 293 1199 359 c 256,19,20
 1280 425 1280 425 1280 549 c 0,21,22
 1280 631 1280 631 1233 695 c 0,23,24
 1185 756 1185 756 1104 775 c 1,25,26
 1165 796 1165 796 1205 846 c 0,27,28
 1244 892 1244 892 1244 954 c 0,29,30
 1244 1075 1244 1075 1163 1137 c 0,31,32
 1084 1198 1084 1198 942 1198 c 2,33,-1
 646 1198 l 1,34,-1
 646 293 l 1,16,-1
769 717 m 1,35,-1
 999 717 l 2,36,37
 1079 717 1079 717 1118 672 c 256,38,39
 1157 627 1157 627 1157 548 c 0,40,41
 1157 472 1157 472 1111 431 c 0,42,43
 1063 390 1063 390 981 390 c 2,44,-1
 769 390 l 1,45,-1
 769 717 l 1,35,-1
769 814 m 1,46,-1
 769 1101 l 1,47,-1
 942 1101 l 2,48,49
 1028 1101 1028 1101 1075 1065 c 0,50,51
 1121 1029 1121 1029 1121 956 c 0,52,53
 1121 889 1121 889 1078 852 c 0,54,55
 1035 814 1035 814 967 814 c 2,56,-1
 769 814 l 1,46,-1
1997 712 m 1,57,-1
 1997 809 l 1,58,-1
 1582 809 l 1,59,-1
 1582 1101 l 1,60,-1
 2054 1101 l 1,61,-1
 2054 1198 l 1,62,-1
 1460 1198 l 1,63,-1
 1460 293 l 1,64,-1
 2060 293 l 1,65,-1
 2060 390 l 1,66,-1
 1582 390 l 1,67,-1
 1582 712 l 1,68,-1
 1997 712 l 1,57,-1
2326 390 m 1,69,-1
 2326 1198 l 1,70,-1
 2204 1198 l 1,71,-1
 2204 293 l 1,72,-1
 2755 293 l 1,73,-1
 2755 390 l 1,74,-1
 2326 390 l 1,69,-1
EndSplineSet
EndChar

StartChar: uni2408
Encoding: 9224 9224 25
Width: 3378
Flags: W
LayerCount: 2
Fore
SplineSet
306 1490 m 2,0,-1
 3089 1490 l 2,1,2
 3151 1490 3151 1490 3195.5 1445.5 c 128,-1,3
 3240 1401 3240 1401 3240 1339 c 2,4,-1
 3240 151 l 2,5,6
 3240 88 3240 88 3195.5 44 c 128,-1,7
 3151 0 3151 0 3089 0 c 2,8,-1
 306 0 l 2,9,10
 243 0 243 0 199 44 c 128,-1,11
 155 88 155 88 155 151 c 2,12,-1
 155 1339 l 2,13,14
 155 1401 155 1401 199 1445.5 c 128,-1,15
 243 1490 243 1490 306 1490 c 2,0,-1
965 293 m 1,16,-1
 1300 293 l 2,17,18
 1437 293 1437 293 1518 359 c 256,19,20
 1599 425 1599 425 1599 549 c 0,21,22
 1599 631 1599 631 1552 695 c 0,23,24
 1504 756 1504 756 1423 775 c 1,25,26
 1484 796 1484 796 1524 846 c 0,27,28
 1563 892 1563 892 1563 954 c 0,29,30
 1563 1075 1563 1075 1482 1137 c 0,31,32
 1403 1198 1403 1198 1260 1198 c 2,33,-1
 965 1198 l 1,34,-1
 965 293 l 1,16,-1
1087 717 m 1,35,-1
 1318 717 l 2,36,37
 1398 717 1398 717 1437 672 c 256,38,39
 1476 627 1476 627 1476 548 c 0,40,41
 1476 473 1476 473 1430 431 c 0,42,43
 1381 390 1381 390 1300 390 c 2,44,-1
 1087 390 l 1,45,-1
 1087 717 l 1,35,-1
1087 814 m 1,46,-1
 1087 1101 l 1,47,-1
 1260 1101 l 2,48,49
 1347 1101 1347 1101 1394 1065 c 0,50,51
 1440 1029 1440 1029 1440 956 c 0,52,53
 1440 889 1440 889 1397 852 c 0,54,55
 1354 814 1354 814 1286 814 c 2,56,-1
 1087 814 l 1,46,-1
2272 522 m 0,57,58
 2272 455 2272 455 2218 416 c 256,59,60
 2164 377 2164 377 2071 377 c 0,61,62
 1975 377 1975 377 1912 423 c 0,63,64
 1848 468 1848 468 1848 555 c 1,65,-1
 1732 555 l 1,66,-1
 1730 551 l 1,67,68
 1727 428 1727 428 1831 355 c 0,69,70
 1934 281 1934 281 2071 281 c 0,71,72
 2215 281 2215 281 2305 347 c 0,73,74
 2394 413 2394 413 2394 523 c 0,75,76
 2394 624 2394 624 2320 694 c 0,77,78
 2244 763 2244 763 2102 798 c 0,79,80
 1984 827 1984 827 1930 867 c 0,81,82
 1878 907 1878 907 1878 965 c 0,83,84
 1878 1032 1878 1032 1926 1073 c 0,85,86
 1976 1114 1976 1114 2067 1114 c 0,87,88
 2165 1114 2165 1114 2217 1065 c 0,89,90
 2270 1015 2270 1015 2270 937 c 1,91,-1
 2387 937 l 1,92,-1
 2388 940 l 1,93,94
 2391 1048 2391 1048 2303 1129 c 0,95,96
 2215 1211 2215 1211 2067 1211 c 0,97,98
 1929 1211 1929 1211 1842 1140 c 256,99,100
 1755 1069 1755 1069 1755 963 c 0,101,102
 1755 862 1755 862 1836 796 c 0,103,104
 1913 730 1913 730 2060 695 c 0,105,106
 2179 666 2179 666 2225 625 c 0,107,108
 2272 582 2272 582 2272 522 c 0,57,58
EndSplineSet
EndChar

StartChar: uni240B
Encoding: 9227 9227 26
Width: 3378
Flags: W
LayerCount: 2
Fore
SplineSet
306 1490 m 2,0,-1
 3089 1490 l 2,1,2
 3151 1490 3151 1490 3195.5 1445.5 c 128,-1,3
 3240 1401 3240 1401 3240 1339 c 2,4,-1
 3240 151 l 2,5,6
 3240 88 3240 88 3195.5 44 c 128,-1,7
 3151 0 3151 0 3089 0 c 2,8,-1
 306 0 l 2,9,10
 243 0 243 0 199 44 c 128,-1,11
 155 88 155 88 155 151 c 2,12,-1
 155 1339 l 2,13,14
 155 1401 155 1401 199 1445.5 c 128,-1,15
 243 1490 243 1490 306 1490 c 2,0,-1
1262 518 m 1,16,-1
 1028 1198 l 1,17,-1
 896 1198 l 1,18,-1
 1231 293 l 1,19,-1
 1337 293 l 1,20,-1
 1673 1198 l 1,21,-1
 1540 1198 l 1,22,-1
 1307 518 l 1,23,-1
 1286 447 l 1,24,-1
 1282 447 l 1,25,-1
 1262 518 l 1,16,-1
2411 1101 m 1,26,-1
 2411 1198 l 1,27,-1
 1708 1198 l 1,28,-1
 1708 1101 l 1,29,-1
 1998 1101 l 1,30,-1
 1998 293 l 1,31,-1
 2120 293 l 1,32,-1
 2120 1101 l 1,33,-1
 2411 1101 l 1,26,-1
EndSplineSet
EndChar

StartChar: uni240C
Encoding: 9228 9228 27
Width: 3378
Flags: W
LayerCount: 2
Fore
SplineSet
306 1490 m 2,0,-1
 3089 1490 l 2,1,2
 3151 1490 3151 1490 3195.5 1445.5 c 128,-1,3
 3240 1401 3240 1401 3240 1339 c 2,4,-1
 3240 151 l 2,5,6
 3240 88 3240 88 3195.5 44 c 128,-1,7
 3151 0 3151 0 3089 0 c 2,8,-1
 306 0 l 2,9,10
 243 0 243 0 199 44 c 128,-1,11
 155 88 155 88 155 151 c 2,12,-1
 155 1339 l 2,13,14
 155 1401 155 1401 199 1445.5 c 128,-1,15
 243 1490 243 1490 306 1490 c 2,0,-1
1563 693 m 1,16,-1
 1563 790 l 1,17,-1
 1150 790 l 1,18,-1
 1150 1101 l 1,19,-1
 1626 1101 l 1,20,-1
 1626 1198 l 1,21,-1
 1027 1198 l 1,22,-1
 1027 293 l 1,23,-1
 1150 293 l 1,24,-1
 1150 693 l 1,25,-1
 1563 693 l 1,16,-1
2304 693 m 1,26,-1
 2304 790 l 1,27,-1
 1891 790 l 1,28,-1
 1891 1101 l 1,29,-1
 2367 1101 l 1,30,-1
 2367 1198 l 1,31,-1
 1769 1198 l 1,32,-1
 1769 293 l 1,33,-1
 1891 293 l 1,34,-1
 1891 693 l 1,35,-1
 2304 693 l 1,26,-1
EndSplineSet
EndChar
